# xmcd
#
# Track frame offsets: 
#        150
#        11358
#        23467
#        33962
#        46416
#        58698
#        68770
#        79429
#        90896
#        103758
#        114707
#        127835
#        139897
#        151552
#        166161
#        178662
#        190481
#        201587
#        213116
#        227279
#        241904
#        253214
#        263952
#        274259
#        285381
#        296268
#        308683
#
# Disc length: 4283 seconds
#
# Revision: 5
# Processed by: cddbd v1.5.2PL0 Copyright (c) Steve Scherf et al.
# Submitted via: ExactAudioCopyFreeDBPlugin 1.0
#
DISCID=6c10b91b
DTITLE=Hank Snow - I'm Movin' On 1949-1953 Vol. 2
DYEAR=1989
DGENRE=Country
TTITLE0=Music Makin' Mama From Memphis
TTITLE1=The Highest Bidder
TTITLE2=The Gold Rush Is Over
TTITLE3=Love's Game Of Let's Pretend
TTITLE4=Bluebird Island (with Anita Carter)
TTITLE5=Down The Trail Of Achin' Hearts (with Anita Carter)
TTITLE6=Lady's Man
TTITLE7=(Now And Then) There's A Fool Such As I
TTITLE8=Why Do You Punish Me
TTITLE9=Chattin' With A Chick In Chattanooga
TTITLE10=The Greatest Sin
TTITLE11=Married By The Bible, Divorced By The Law
TTITLE12=There Wasn't An Organ At Our Wedding
TTITLE13=On That Old Hawaiian Shore With You
TTITLE14=Zeb Turney's Gal
TTITLE15=Golden River
TTITLE16=Moanin'
TTITLE17=I Knew That We'd Meet Again
TTITLE18=Yodeling Cowboy
TTITLE19=On That Old Hawaiian Shore With You
TTITLE20=I'm Moving On To Glory
TTITLE21=Jesus Wept
TTITLE22=Pray
TTITLE23=These Things Shall Pass
TTITLE24=He'll Understand And Say Well Done
TTITLE25=I Just Telephone Upstairs
TTITLE26=I'm In Love With Jesus
EXTD=
EXTT0=
EXTT1=
EXTT2=
EXTT3=
EXTT4=
EXTT5=
EXTT6=
EXTT7=
EXTT8=
EXTT9=
EXTT10=
EXTT11=
EXTT12=
EXTT13=
EXTT14=
EXTT15=
EXTT16=
EXTT17=
EXTT18=
EXTT19=
EXTT20=
EXTT21=
EXTT22=
EXTT23=
EXTT24=
EXTT25=
EXTT26=
PLAYORDER=
